<svg width="289" height="21" viewBox="0 0 289 21" fill="none" xmlns="http://www.w3.org/2000/svg">
<path fill-rule="evenodd" clip-rule="evenodd" d="M56.513 4.02161C64.5817 3.46188 72.6476 2.84258 80.7253 2.36798C88.3805 1.91254 96.0476 1.50815 103.721 1.26553C118.35 0.801577 132.979 0.352525 147.617 0.124803C159.414 -0.0582256 171.228 -0.0220623 183.028 0.118402C196.595 0.282276 210.156 0.610051 223.714 0.984622C229.879 1.15275 236.025 1.68693 242.19 1.90189C246.358 2.04661 250.568 1.71885 254.722 1.95721C264.37 2.51268 273.995 3.28099 283.632 3.96628C283.894 3.98544 284.167 4.01311 284.405 4.08334C286.19 4.60689 288.946 4.73672 288.336 6.68832C287.726 8.64204 285.244 7.43105 283.617 7.4502C280.552 7.48425 277.482 7.31825 274.415 7.2161C271.68 7.12671 268.946 6.97986 266.206 6.91814C262.871 6.84365 259.521 6.91817 256.188 6.77133C248.914 6.45422 241.655 5.86467 234.374 5.70292C222.911 5.44966 211.438 5.44968 199.969 5.35816C189.386 5.27303 178.803 5.1432 168.22 5.14746C154.213 5.15384 140.203 5.09426 126.207 5.39009C112.893 5.67102 99.597 6.40525 86.2889 6.87134C77.756 7.17142 69.1993 7.18633 60.6843 7.62474C47.9325 8.27811 35.0885 8.66117 22.6997 11.1427C19.2812 11.828 16.2346 12.0685 13.0392 11.0661C12.0217 10.7469 11.022 10.3595 10.1354 9.8828C9.72778 9.66572 9.29935 9.06981 9.44513 8.80804C9.6891 8.36749 10.3347 7.78224 10.903 7.72904C22.3159 6.64363 33.7407 5.60502 45.1715 4.60688C48.9322 4.277 52.7166 4.08545 56.4862 3.83219C56.4981 3.89604 56.504 3.95989 56.513 4.02161Z" fill="black"/>
<path fill-rule="evenodd" clip-rule="evenodd" d="M251.481 10.832C251.064 9.87646 250.865 9.41466 250.648 8.9209C251.017 8.82088 251.311 8.66124 251.466 8.71232C252.478 9.04645 253.897 9.24439 254.37 9.82753C255.866 11.6578 258.217 11.3237 260.52 11.5706C265.384 12.0962 270.222 12.8049 275.015 13.6094C275.83 13.7456 276.366 14.731 277.029 15.3269C276.244 15.5844 275.455 16.0569 274.67 16.0633C271.498 16.0803 268.324 16.0207 265.161 15.8675C256.021 15.4269 246.902 14.765 237.753 14.4905C227.289 14.1776 216.808 14.2351 206.335 14.0329C201.351 13.9372 196.377 13.5307 191.393 13.4328C187.546 13.3562 183.691 13.5647 179.841 13.6094C171.415 13.7009 162.989 13.786 154.563 13.8456C139.372 13.952 124.169 13.8414 108.989 14.1968C97.6296 14.4628 86.3059 15.3844 74.9525 15.8866C63.8966 16.3761 52.811 16.5847 41.764 17.1508C34.924 17.502 28.1049 18.1766 21.3184 18.913C17.3495 19.345 13.5025 20.341 9.53652 20.7816C6.98676 21.0646 4.30015 20.8901 1.70279 20.7199C1.05419 20.6773 0.140798 19.8962 0.0158386 19.3769C-0.10317 18.8832 0.468071 17.9936 1.07204 17.7914C2.44659 17.3274 4.00857 17.0742 5.5289 16.9146C18.1944 15.5866 30.8212 14.0329 43.5402 13.071C59.3118 11.8792 75.1429 11.0002 90.977 10.3298C105.511 9.71047 120.078 9.4955 134.635 9.20393C144.695 9.00175 154.769 8.78256 164.825 8.91238C181.581 9.12733 198.329 9.63809 215.085 9.98286C223.359 10.1553 231.645 10.2106 239.919 10.3745C243.599 10.449 247.265 10.6618 251.481 10.832Z" fill="black"/>
</svg>
